<mxfile host="app.diagrams.net" modified="2022-09-07T17:40:12.013Z" agent="5.0 (Windows NT 10.0; Win64; x64) AppleWebKit/537.36 (KHTML, like Gecko) Chrome/105.0.0.0 Safari/537.36 Edg/105.0.1343.27" etag="wepkAgAXy-wj8RNd7NUk" version="20.3.0" type="github">
  <diagram id="C5RBs43oDa-KdzZeNtuy" name="Page-1">
    <mxGraphModel dx="1000" dy="1134" grid="1" gridSize="10" guides="1" tooltips="1" connect="1" arrows="1" fold="1" page="1" pageScale="1" pageWidth="827" pageHeight="1169" math="0" shadow="0">
      <root>
        <mxCell id="WIyWlLk6GJQsqaUBKTNV-0" />
        <mxCell id="WIyWlLk6GJQsqaUBKTNV-1" parent="WIyWlLk6GJQsqaUBKTNV-0" />
        <mxCell id="jCPasw-vf7MsJhfyoigZ-17" style="edgeStyle=orthogonalEdgeStyle;rounded=0;orthogonalLoop=1;jettySize=auto;html=1;entryX=0.5;entryY=1;entryDx=0;entryDy=0;endArrow=none;endFill=0;" parent="WIyWlLk6GJQsqaUBKTNV-1" source="jCPasw-vf7MsJhfyoigZ-0" target="jCPasw-vf7MsJhfyoigZ-9" edge="1">
          <mxGeometry relative="1" as="geometry">
            <Array as="points">
              <mxPoint x="130" y="110" />
              <mxPoint x="130" y="110" />
            </Array>
          </mxGeometry>
        </mxCell>
        <mxCell id="jCPasw-vf7MsJhfyoigZ-28" style="edgeStyle=orthogonalEdgeStyle;rounded=0;orthogonalLoop=1;jettySize=auto;html=1;entryX=0.5;entryY=1;entryDx=0;entryDy=0;endArrow=none;endFill=0;" parent="WIyWlLk6GJQsqaUBKTNV-1" source="jCPasw-vf7MsJhfyoigZ-0" target="jCPasw-vf7MsJhfyoigZ-26" edge="1">
          <mxGeometry relative="1" as="geometry">
            <Array as="points">
              <mxPoint x="220" y="110" />
              <mxPoint x="220" y="110" />
            </Array>
          </mxGeometry>
        </mxCell>
        <mxCell id="jCPasw-vf7MsJhfyoigZ-31" value="" style="edgeStyle=orthogonalEdgeStyle;rounded=0;orthogonalLoop=1;jettySize=auto;html=1;endArrow=none;endFill=0;" parent="WIyWlLk6GJQsqaUBKTNV-1" source="jCPasw-vf7MsJhfyoigZ-0" target="jCPasw-vf7MsJhfyoigZ-29" edge="1">
          <mxGeometry relative="1" as="geometry">
            <Array as="points">
              <mxPoint x="100" y="140" />
              <mxPoint x="100" y="140" />
            </Array>
          </mxGeometry>
        </mxCell>
        <mxCell id="jCPasw-vf7MsJhfyoigZ-39" value="" style="edgeStyle=orthogonalEdgeStyle;rounded=0;orthogonalLoop=1;jettySize=auto;html=1;fontSize=20;endArrow=none;endFill=0;strokeWidth=4;" parent="WIyWlLk6GJQsqaUBKTNV-1" source="jCPasw-vf7MsJhfyoigZ-0" target="jCPasw-vf7MsJhfyoigZ-36" edge="1">
          <mxGeometry relative="1" as="geometry">
            <Array as="points">
              <mxPoint x="270" y="160" />
              <mxPoint x="270" y="160" />
            </Array>
          </mxGeometry>
        </mxCell>
        <mxCell id="X40vBO662WpOUM799aez-28" value="(1,1)" style="edgeLabel;html=1;align=center;verticalAlign=middle;resizable=0;points=[];fontSize=20;" vertex="1" connectable="0" parent="jCPasw-vf7MsJhfyoigZ-39">
          <mxGeometry x="-0.7048" y="-1" relative="1" as="geometry">
            <mxPoint x="21" y="-31" as="offset" />
          </mxGeometry>
        </mxCell>
        <mxCell id="jCPasw-vf7MsJhfyoigZ-0" value="&lt;font style=&quot;font-size: 20px;&quot;&gt;Cliente&lt;/font&gt;" style="rounded=0;whiteSpace=wrap;html=1;" parent="WIyWlLk6GJQsqaUBKTNV-1" vertex="1">
          <mxGeometry x="120" y="130" width="120" height="60" as="geometry" />
        </mxCell>
        <mxCell id="X40vBO662WpOUM799aez-42" style="edgeStyle=none;rounded=0;orthogonalLoop=1;jettySize=auto;html=1;entryX=0.5;entryY=0;entryDx=0;entryDy=0;strokeColor=#000000;strokeWidth=1;fontSize=20;endArrow=none;endFill=0;" edge="1" parent="WIyWlLk6GJQsqaUBKTNV-1" source="jCPasw-vf7MsJhfyoigZ-1" target="X40vBO662WpOUM799aez-41">
          <mxGeometry relative="1" as="geometry" />
        </mxCell>
        <mxCell id="jCPasw-vf7MsJhfyoigZ-1" value="Conta" style="rounded=0;whiteSpace=wrap;html=1;" parent="WIyWlLk6GJQsqaUBKTNV-1" vertex="1">
          <mxGeometry x="480" y="130" width="120" height="60" as="geometry" />
        </mxCell>
        <mxCell id="jCPasw-vf7MsJhfyoigZ-9" value="" style="ellipse;whiteSpace=wrap;html=1;aspect=fixed;fillColor=#666666;fontColor=#333333;strokeColor=#666666;" parent="WIyWlLk6GJQsqaUBKTNV-1" vertex="1">
          <mxGeometry x="120" y="70" width="20" height="20" as="geometry" />
        </mxCell>
        <mxCell id="jCPasw-vf7MsJhfyoigZ-10" value="Nome" style="text;html=1;strokeColor=none;fillColor=none;align=center;verticalAlign=middle;whiteSpace=wrap;rounded=0;" parent="WIyWlLk6GJQsqaUBKTNV-1" vertex="1">
          <mxGeometry x="100" y="40" width="60" height="30" as="geometry" />
        </mxCell>
        <mxCell id="jCPasw-vf7MsJhfyoigZ-19" value="" style="ellipse;whiteSpace=wrap;html=1;aspect=fixed;fillColor=#666666;fontColor=#333333;strokeColor=#666666;" parent="WIyWlLk6GJQsqaUBKTNV-1" vertex="1">
          <mxGeometry x="160" y="70" width="20" height="20" as="geometry" />
        </mxCell>
        <mxCell id="jCPasw-vf7MsJhfyoigZ-20" value="CPF" style="text;html=1;strokeColor=none;fillColor=none;align=center;verticalAlign=middle;whiteSpace=wrap;rounded=0;" parent="WIyWlLk6GJQsqaUBKTNV-1" vertex="1">
          <mxGeometry x="140" y="40" width="60" height="30" as="geometry" />
        </mxCell>
        <mxCell id="jCPasw-vf7MsJhfyoigZ-26" value="" style="ellipse;whiteSpace=wrap;html=1;aspect=fixed;fillColor=#666666;fontColor=#333333;strokeColor=#666666;" parent="WIyWlLk6GJQsqaUBKTNV-1" vertex="1">
          <mxGeometry x="210" y="70" width="20" height="20" as="geometry" />
        </mxCell>
        <mxCell id="jCPasw-vf7MsJhfyoigZ-27" value="Data Nasc." style="text;html=1;strokeColor=none;fillColor=none;align=center;verticalAlign=middle;whiteSpace=wrap;rounded=0;" parent="WIyWlLk6GJQsqaUBKTNV-1" vertex="1">
          <mxGeometry x="190" y="40" width="70" height="30" as="geometry" />
        </mxCell>
        <mxCell id="jCPasw-vf7MsJhfyoigZ-29" value="" style="ellipse;whiteSpace=wrap;html=1;aspect=fixed;fillColor=#f5f5f5;strokeColor=#666666;gradientColor=#b3b3b3;" parent="WIyWlLk6GJQsqaUBKTNV-1" vertex="1">
          <mxGeometry x="60" y="130" width="20" height="20" as="geometry" />
        </mxCell>
        <mxCell id="jCPasw-vf7MsJhfyoigZ-32" value="" style="edgeStyle=orthogonalEdgeStyle;rounded=0;orthogonalLoop=1;jettySize=auto;html=1;endArrow=none;endFill=0;" parent="WIyWlLk6GJQsqaUBKTNV-1" target="jCPasw-vf7MsJhfyoigZ-33" edge="1">
          <mxGeometry relative="1" as="geometry">
            <mxPoint x="120" y="170" as="sourcePoint" />
            <Array as="points">
              <mxPoint x="120" y="180" />
            </Array>
          </mxGeometry>
        </mxCell>
        <mxCell id="jCPasw-vf7MsJhfyoigZ-33" value="" style="ellipse;whiteSpace=wrap;html=1;aspect=fixed;fillColor=#f5f5f5;strokeColor=#666666;gradientColor=#b3b3b3;" parent="WIyWlLk6GJQsqaUBKTNV-1" vertex="1">
          <mxGeometry x="60" y="170" width="20" height="20" as="geometry" />
        </mxCell>
        <mxCell id="jCPasw-vf7MsJhfyoigZ-34" value="Telefone" style="text;html=1;strokeColor=none;fillColor=none;align=center;verticalAlign=middle;whiteSpace=wrap;rounded=0;" parent="WIyWlLk6GJQsqaUBKTNV-1" vertex="1">
          <mxGeometry x="40" y="190" width="60" height="30" as="geometry" />
        </mxCell>
        <mxCell id="jCPasw-vf7MsJhfyoigZ-35" value="EndereÃ§o" style="text;html=1;strokeColor=none;fillColor=none;align=center;verticalAlign=middle;whiteSpace=wrap;rounded=0;" parent="WIyWlLk6GJQsqaUBKTNV-1" vertex="1">
          <mxGeometry x="40" y="100" width="60" height="30" as="geometry" />
        </mxCell>
        <mxCell id="X40vBO662WpOUM799aez-31" style="edgeStyle=orthogonalEdgeStyle;rounded=0;orthogonalLoop=1;jettySize=auto;html=1;entryX=0;entryY=0.5;entryDx=0;entryDy=0;strokeWidth=4;fontSize=20;endArrow=none;endFill=0;" edge="1" parent="WIyWlLk6GJQsqaUBKTNV-1" source="jCPasw-vf7MsJhfyoigZ-36" target="jCPasw-vf7MsJhfyoigZ-1">
          <mxGeometry relative="1" as="geometry" />
        </mxCell>
        <mxCell id="X40vBO662WpOUM799aez-32" value="(1,n)" style="edgeLabel;html=1;align=center;verticalAlign=middle;resizable=0;points=[];fontSize=20;" vertex="1" connectable="0" parent="X40vBO662WpOUM799aez-31">
          <mxGeometry x="0.7413" y="-1" relative="1" as="geometry">
            <mxPoint x="-22" y="-31" as="offset" />
          </mxGeometry>
        </mxCell>
        <mxCell id="jCPasw-vf7MsJhfyoigZ-36" value="" style="rhombus;whiteSpace=wrap;html=1;fontSize=20;" parent="WIyWlLk6GJQsqaUBKTNV-1" vertex="1">
          <mxGeometry x="300" y="120" width="120" height="80" as="geometry" />
        </mxCell>
        <mxCell id="X40vBO662WpOUM799aez-16" style="edgeStyle=orthogonalEdgeStyle;rounded=0;orthogonalLoop=1;jettySize=auto;html=1;entryX=0.5;entryY=1;entryDx=0;entryDy=0;endArrow=none;endFill=0;" edge="1" parent="WIyWlLk6GJQsqaUBKTNV-1">
          <mxGeometry relative="1" as="geometry">
            <Array as="points">
              <mxPoint x="169.86" y="110" />
              <mxPoint x="169.86" y="110" />
            </Array>
            <mxPoint x="169.86" y="130.00000000000006" as="sourcePoint" />
            <mxPoint x="169.86" y="90.00000000000006" as="targetPoint" />
          </mxGeometry>
        </mxCell>
        <mxCell id="X40vBO662WpOUM799aez-33" value="" style="triangle;whiteSpace=wrap;html=1;fontSize=20;direction=north;strokeColor=#47EDFF;strokeWidth=3;" vertex="1" parent="WIyWlLk6GJQsqaUBKTNV-1">
          <mxGeometry x="340" y="700" width="120" height="50" as="geometry" />
        </mxCell>
        <mxCell id="X40vBO662WpOUM799aez-36" style="orthogonalLoop=1;jettySize=auto;html=1;entryX=0.007;entryY=0.329;entryDx=0;entryDy=0;entryPerimeter=0;strokeColor=#000000;strokeWidth=1;fontSize=20;endArrow=none;endFill=0;rounded=0;" edge="1" parent="WIyWlLk6GJQsqaUBKTNV-1" source="X40vBO662WpOUM799aez-35" target="X40vBO662WpOUM799aez-33">
          <mxGeometry relative="1" as="geometry" />
        </mxCell>
        <mxCell id="X40vBO662WpOUM799aez-35" value="" style="rounded=0;whiteSpace=wrap;html=1;strokeColor=#000000;strokeWidth=1;fontSize=20;" vertex="1" parent="WIyWlLk6GJQsqaUBKTNV-1">
          <mxGeometry x="160" y="1020" width="120" height="60" as="geometry" />
        </mxCell>
        <mxCell id="X40vBO662WpOUM799aez-40" style="edgeStyle=none;rounded=0;orthogonalLoop=1;jettySize=auto;html=1;strokeColor=#000000;strokeWidth=1;fontSize=20;endArrow=none;endFill=0;" edge="1" parent="WIyWlLk6GJQsqaUBKTNV-1" source="X40vBO662WpOUM799aez-37" target="X40vBO662WpOUM799aez-33">
          <mxGeometry relative="1" as="geometry" />
        </mxCell>
        <mxCell id="X40vBO662WpOUM799aez-37" value="" style="rounded=0;whiteSpace=wrap;html=1;strokeColor=#000000;strokeWidth=1;fontSize=20;" vertex="1" parent="WIyWlLk6GJQsqaUBKTNV-1">
          <mxGeometry x="560" y="1000" width="120" height="60" as="geometry" />
        </mxCell>
        <mxCell id="X40vBO662WpOUM799aez-41" value="TransaÃ§Ã£o" style="rounded=0;whiteSpace=wrap;html=1;strokeColor=#000000;strokeWidth=1;fontSize=20;" vertex="1" parent="WIyWlLk6GJQsqaUBKTNV-1">
          <mxGeometry x="480" y="250" width="120" height="60" as="geometry" />
        </mxCell>
      </root>
    </mxGraphModel>
  </diagram>
</mxfile>
